<mxfile host="65bd71144e">
    <diagram name="Seite-1" id="oi7ihmUMSAgoP12T3gtz">
        <mxGraphModel dx="1788" dy="1286" grid="1" gridSize="10" guides="1" tooltips="1" connect="1" arrows="1" fold="1" page="1" pageScale="1" pageWidth="827" pageHeight="1169" math="0" shadow="0">
            <root>
                <mxCell id="0"/>
                <mxCell id="1" parent="0"/>
                <mxCell id="a2Eg88y01cHOkWYuPuVT-1" style="edgeStyle=orthogonalEdgeStyle;rounded=0;orthogonalLoop=1;jettySize=auto;html=1;exitX=0.5;exitY=1;exitDx=0;exitDy=0;entryX=0.5;entryY=0;entryDx=0;entryDy=0;fontColor=#000000;" parent="1" source="a2Eg88y01cHOkWYuPuVT-2" target="a2Eg88y01cHOkWYuPuVT-14" edge="1">
                    <mxGeometry relative="1" as="geometry"/>
                </mxCell>
                <mxCell id="a2Eg88y01cHOkWYuPuVT-2" value="GAIA API Endpoint" style="rounded=1;whiteSpace=wrap;html=1;fillColor=#f8cecc;strokeColor=#b85450;fontColor=#000000;" parent="1" vertex="1">
                    <mxGeometry x="400" y="200" width="120" height="40" as="geometry"/>
                </mxCell>
                <mxCell id="a2Eg88y01cHOkWYuPuVT-3" style="edgeStyle=orthogonalEdgeStyle;rounded=1;orthogonalLoop=1;jettySize=auto;html=1;exitX=0.5;exitY=1;exitDx=0;exitDy=0;curved=0;fontColor=#000000;" parent="1" source="a2Eg88y01cHOkWYuPuVT-4" target="a2Eg88y01cHOkWYuPuVT-2" edge="1">
                    <mxGeometry relative="1" as="geometry"/>
                </mxCell>
                <mxCell id="a2Eg88y01cHOkWYuPuVT-4" value="ChatBot" style="rounded=1;whiteSpace=wrap;html=1;fillColor=#dae8fc;strokeColor=#6c8ebf;fontColor=#000000;" parent="1" vertex="1">
                    <mxGeometry x="560" y="100" width="120" height="40" as="geometry"/>
                </mxCell>
                <mxCell id="a2Eg88y01cHOkWYuPuVT-5" style="edgeStyle=orthogonalEdgeStyle;rounded=1;orthogonalLoop=1;jettySize=auto;html=1;exitX=1;exitY=0.5;exitDx=0;exitDy=0;entryX=0.5;entryY=0;entryDx=0;entryDy=0;curved=0;fontColor=#000000;" parent="1" source="a2Eg88y01cHOkWYuPuVT-7" target="a2Eg88y01cHOkWYuPuVT-4" edge="1">
                    <mxGeometry relative="1" as="geometry"/>
                </mxCell>
                <mxCell id="a2Eg88y01cHOkWYuPuVT-6" style="edgeStyle=orthogonalEdgeStyle;rounded=0;orthogonalLoop=1;jettySize=auto;html=1;exitX=0.5;exitY=1;exitDx=0;exitDy=0;entryX=0.5;entryY=0;entryDx=0;entryDy=0;fontColor=#000000;" parent="1" source="a2Eg88y01cHOkWYuPuVT-7" target="a2Eg88y01cHOkWYuPuVT-2" edge="1">
                    <mxGeometry relative="1" as="geometry"/>
                </mxCell>
                <mxCell id="a2Eg88y01cHOkWYuPuVT-7" value="User" style="rounded=1;whiteSpace=wrap;html=1;fillColor=#fff2cc;strokeColor=#d6b656;fontColor=#000000;" parent="1" vertex="1">
                    <mxGeometry x="400" y="40" width="120" height="40" as="geometry"/>
                </mxCell>
                <mxCell id="a2Eg88y01cHOkWYuPuVT-8" style="edgeStyle=orthogonalEdgeStyle;rounded=1;orthogonalLoop=1;jettySize=auto;html=1;exitX=0.5;exitY=1;exitDx=0;exitDy=0;curved=0;fontColor=#000000;" parent="1" source="a2Eg88y01cHOkWYuPuVT-9" target="a2Eg88y01cHOkWYuPuVT-11" edge="1">
                    <mxGeometry relative="1" as="geometry"/>
                </mxCell>
                <mxCell id="a2Eg88y01cHOkWYuPuVT-9" value="Vector DB" style="rounded=1;whiteSpace=wrap;html=1;fillColor=#f5f5f5;fontColor=#000000;strokeColor=#666666;" parent="1" vertex="1">
                    <mxGeometry x="540" y="750" width="120" height="40" as="geometry"/>
                </mxCell>
                <mxCell id="a2Eg88y01cHOkWYuPuVT-10" style="edgeStyle=orthogonalEdgeStyle;rounded=1;orthogonalLoop=1;jettySize=auto;html=1;exitX=0.5;exitY=1;exitDx=0;exitDy=0;entryX=0.5;entryY=1;entryDx=0;entryDy=0;curved=0;fontColor=#000000;" parent="1" source="a2Eg88y01cHOkWYuPuVT-11" target="a2Eg88y01cHOkWYuPuVT-18" edge="1">
                    <mxGeometry relative="1" as="geometry"/>
                </mxCell>
                <mxCell id="a2Eg88y01cHOkWYuPuVT-11" value="Prompt Templating" style="rounded=1;whiteSpace=wrap;html=1;fillColor=#f8cecc;strokeColor=#b85450;fontColor=#000000;" parent="1" vertex="1">
                    <mxGeometry x="400" y="830" width="120" height="40" as="geometry"/>
                </mxCell>
                <mxCell id="a2Eg88y01cHOkWYuPuVT-12" value="" style="edgeStyle=orthogonalEdgeStyle;rounded=0;orthogonalLoop=1;jettySize=auto;html=1;exitX=0.5;exitY=1;exitDx=0;exitDy=0;fontColor=#000000;" parent="1" source="a2Eg88y01cHOkWYuPuVT-14" target="a2Eg88y01cHOkWYuPuVT-29" edge="1">
                    <mxGeometry relative="1" as="geometry">
                        <mxPoint x="460" y="330.0000000000001" as="sourcePoint"/>
                    </mxGeometry>
                </mxCell>
                <mxCell id="a2Eg88y01cHOkWYuPuVT-13" style="edgeStyle=orthogonalEdgeStyle;rounded=0;orthogonalLoop=1;jettySize=auto;html=1;exitX=0.5;exitY=1;exitDx=0;exitDy=0;entryX=1;entryY=0.5;entryDx=0;entryDy=0;fontColor=#000000;" parent="1" source="a2Eg88y01cHOkWYuPuVT-14" target="a2Eg88y01cHOkWYuPuVT-39" edge="1">
                    <mxGeometry relative="1" as="geometry">
                        <mxPoint x="460" y="330.0000000000001" as="sourcePoint"/>
                    </mxGeometry>
                </mxCell>
                <mxCell id="a2Eg88y01cHOkWYuPuVT-14" value="Parameter Extraction" style="rounded=1;whiteSpace=wrap;html=1;fillColor=#f8cecc;strokeColor=#b85450;fontColor=#000000;" parent="1" vertex="1">
                    <mxGeometry x="400" y="280" width="120" height="40" as="geometry"/>
                </mxCell>
                <mxCell id="a2Eg88y01cHOkWYuPuVT-15" style="edgeStyle=orthogonalEdgeStyle;rounded=0;orthogonalLoop=1;jettySize=auto;html=1;exitX=0.5;exitY=0;exitDx=0;exitDy=0;entryX=0.5;entryY=1;entryDx=0;entryDy=0;fontColor=#000000;" parent="1" source="a2Eg88y01cHOkWYuPuVT-16" target="a2Eg88y01cHOkWYuPuVT-22" edge="1">
                    <mxGeometry relative="1" as="geometry"/>
                </mxCell>
                <mxCell id="a2Eg88y01cHOkWYuPuVT-16" value="LLM Output" style="rounded=1;whiteSpace=wrap;html=1;fillColor=#f8cecc;strokeColor=#b85450;fontColor=#000000;" parent="1" vertex="1">
                    <mxGeometry x="40" y="580" width="120" height="40" as="geometry"/>
                </mxCell>
                <mxCell id="a2Eg88y01cHOkWYuPuVT-17" style="edgeStyle=orthogonalEdgeStyle;rounded=0;orthogonalLoop=1;jettySize=auto;html=1;exitX=0.5;exitY=0;exitDx=0;exitDy=0;entryX=0.5;entryY=1;entryDx=0;entryDy=0;fontColor=#000000;" parent="1" source="a2Eg88y01cHOkWYuPuVT-18" target="a2Eg88y01cHOkWYuPuVT-16" edge="1">
                    <mxGeometry relative="1" as="geometry"/>
                </mxCell>
                <mxCell id="a2Eg88y01cHOkWYuPuVT-18" value="LLM" style="rounded=1;whiteSpace=wrap;html=1;fillColor=#e1d5e7;strokeColor=#9673a6;fontColor=#000000;" parent="1" vertex="1">
                    <mxGeometry x="40" y="750" width="120" height="40" as="geometry"/>
                </mxCell>
                <mxCell id="a2Eg88y01cHOkWYuPuVT-19" style="edgeStyle=orthogonalEdgeStyle;rounded=1;orthogonalLoop=1;jettySize=auto;html=1;exitX=0.5;exitY=1;exitDx=0;exitDy=0;entryX=1;entryY=0.5;entryDx=0;entryDy=0;curved=0;fontColor=#000000;" parent="1" source="a2Eg88y01cHOkWYuPuVT-20" target="a2Eg88y01cHOkWYuPuVT-31" edge="1">
                    <mxGeometry relative="1" as="geometry"/>
                </mxCell>
                <mxCell id="a2Eg88y01cHOkWYuPuVT-20" value="Dynamic TopN" style="rounded=1;whiteSpace=wrap;html=1;fillColor=#f8cecc;strokeColor=#b85450;fontColor=#000000;" parent="1" vertex="1">
                    <mxGeometry x="660" y="400" width="120" height="40" as="geometry"/>
                </mxCell>
                <mxCell id="a2Eg88y01cHOkWYuPuVT-21" style="edgeStyle=orthogonalEdgeStyle;rounded=1;orthogonalLoop=1;jettySize=auto;html=1;exitX=0.5;exitY=0;exitDx=0;exitDy=0;entryX=0;entryY=0.5;entryDx=0;entryDy=0;curved=0;fontColor=#000000;" parent="1" source="a2Eg88y01cHOkWYuPuVT-22" target="a2Eg88y01cHOkWYuPuVT-7" edge="1">
                    <mxGeometry relative="1" as="geometry"/>
                </mxCell>
                <mxCell id="a2Eg88y01cHOkWYuPuVT-22" value="Source Link Replacement" style="rounded=1;whiteSpace=wrap;html=1;fillColor=#f8cecc;strokeColor=#b85450;fontColor=#000000;" parent="1" vertex="1">
                    <mxGeometry x="40" y="280" width="120" height="40" as="geometry"/>
                </mxCell>
                <mxCell id="a2Eg88y01cHOkWYuPuVT-23" style="edgeStyle=orthogonalEdgeStyle;rounded=1;orthogonalLoop=1;jettySize=auto;html=1;exitX=0.5;exitY=1;exitDx=0;exitDy=0;entryX=0;entryY=0.5;entryDx=0;entryDy=0;curved=0;fontColor=#000000;" parent="1" source="a2Eg88y01cHOkWYuPuVT-24" target="a2Eg88y01cHOkWYuPuVT-41" edge="1">
                    <mxGeometry relative="1" as="geometry"/>
                </mxCell>
                <mxCell id="a2Eg88y01cHOkWYuPuVT-24" value="History Summarization" style="rounded=1;whiteSpace=wrap;html=1;fillColor=#e1d5e7;strokeColor=#9673a6;fontColor=#000000;" parent="1" vertex="1">
                    <mxGeometry x="140" y="400" width="120" height="40" as="geometry"/>
                </mxCell>
                <mxCell id="a2Eg88y01cHOkWYuPuVT-53" style="edgeStyle=orthogonalEdgeStyle;rounded=1;orthogonalLoop=1;jettySize=auto;html=1;entryX=1;entryY=0.5;entryDx=0;entryDy=0;exitX=0.5;exitY=1;exitDx=0;exitDy=0;curved=0;fontColor=#000000;" parent="1" source="a2Eg88y01cHOkWYuPuVT-26" target="a2Eg88y01cHOkWYuPuVT-36" edge="1">
                    <mxGeometry relative="1" as="geometry">
                        <mxPoint x="730" y="680" as="sourcePoint"/>
                    </mxGeometry>
                </mxCell>
                <mxCell id="a2Eg88y01cHOkWYuPuVT-26" value="Search Query Generation" style="rounded=1;whiteSpace=wrap;html=1;fillColor=#e1d5e7;strokeColor=#9673a6;fontColor=#000000;" parent="1" vertex="1">
                    <mxGeometry x="660" y="630" width="120" height="40" as="geometry"/>
                </mxCell>
                <mxCell id="a2Eg88y01cHOkWYuPuVT-27" style="edgeStyle=orthogonalEdgeStyle;rounded=1;orthogonalLoop=1;jettySize=auto;html=1;exitX=1;exitY=0.5;exitDx=0;exitDy=0;entryX=0.5;entryY=0;entryDx=0;entryDy=0;curved=0;fontColor=#000000;" parent="1" source="a2Eg88y01cHOkWYuPuVT-29" target="a2Eg88y01cHOkWYuPuVT-20" edge="1">
                    <mxGeometry relative="1" as="geometry"/>
                </mxCell>
                <mxCell id="a2Eg88y01cHOkWYuPuVT-49" value="yes" style="edgeLabel;html=1;align=center;verticalAlign=middle;resizable=0;points=[];fontColor=#000000;" parent="a2Eg88y01cHOkWYuPuVT-27" vertex="1" connectable="0">
                    <mxGeometry x="-0.3095" relative="1" as="geometry">
                        <mxPoint as="offset"/>
                    </mxGeometry>
                </mxCell>
                <mxCell id="a2Eg88y01cHOkWYuPuVT-28" style="edgeStyle=orthogonalEdgeStyle;rounded=0;orthogonalLoop=1;jettySize=auto;html=1;exitX=0.5;exitY=1;exitDx=0;exitDy=0;entryX=0.5;entryY=0;entryDx=0;entryDy=0;fontColor=#000000;" parent="1" source="a2Eg88y01cHOkWYuPuVT-29" target="a2Eg88y01cHOkWYuPuVT-31" edge="1">
                    <mxGeometry relative="1" as="geometry"/>
                </mxCell>
                <mxCell id="a2Eg88y01cHOkWYuPuVT-50" value="no" style="edgeLabel;html=1;align=center;verticalAlign=middle;resizable=0;points=[];fontColor=#000000;" parent="a2Eg88y01cHOkWYuPuVT-28" vertex="1" connectable="0">
                    <mxGeometry x="-0.2808" y="2" relative="1" as="geometry">
                        <mxPoint as="offset"/>
                    </mxGeometry>
                </mxCell>
                <mxCell id="a2Eg88y01cHOkWYuPuVT-29" value="dynamicNActive" style="rhombus;whiteSpace=wrap;html=1;fontColor=#000000;" parent="1" vertex="1">
                    <mxGeometry x="550" y="310" width="100" height="100" as="geometry"/>
                </mxCell>
                <mxCell id="a2Eg88y01cHOkWYuPuVT-30" style="edgeStyle=orthogonalEdgeStyle;rounded=0;orthogonalLoop=1;jettySize=auto;html=1;exitX=0.5;exitY=1;exitDx=0;exitDy=0;entryX=0.5;entryY=0;entryDx=0;entryDy=0;fontColor=#000000;" parent="1" target="a2Eg88y01cHOkWYuPuVT-34" edge="1">
                    <mxGeometry relative="1" as="geometry">
                        <mxPoint x="600" y="570" as="sourcePoint"/>
                    </mxGeometry>
                </mxCell>
                <mxCell id="a2Eg88y01cHOkWYuPuVT-52" style="edgeStyle=orthogonalEdgeStyle;rounded=0;orthogonalLoop=1;jettySize=auto;html=1;exitX=0.5;exitY=1;exitDx=0;exitDy=0;entryX=0.5;entryY=0;entryDx=0;entryDy=0;fontColor=#000000;" parent="1" source="a2Eg88y01cHOkWYuPuVT-31" target="a2Eg88y01cHOkWYuPuVT-51" edge="1">
                    <mxGeometry relative="1" as="geometry"/>
                </mxCell>
                <mxCell id="a2Eg88y01cHOkWYuPuVT-31" value="" style="rhombus;whiteSpace=wrap;html=1;fontColor=#000000;" parent="1" vertex="1">
                    <mxGeometry x="580" y="460" width="40" height="40" as="geometry"/>
                </mxCell>
                <mxCell id="a2Eg88y01cHOkWYuPuVT-32" style="edgeStyle=orthogonalEdgeStyle;rounded=1;orthogonalLoop=1;jettySize=auto;html=1;exitX=1;exitY=0.5;exitDx=0;exitDy=0;entryX=0.5;entryY=0;entryDx=0;entryDy=0;curved=0;fontColor=#000000;" parent="1" source="a2Eg88y01cHOkWYuPuVT-34" target="a2Eg88y01cHOkWYuPuVT-26" edge="1">
                    <mxGeometry relative="1" as="geometry"/>
                </mxCell>
                <mxCell id="a2Eg88y01cHOkWYuPuVT-54" value="yes" style="edgeLabel;html=1;align=center;verticalAlign=middle;resizable=0;points=[];fontColor=#000000;" parent="a2Eg88y01cHOkWYuPuVT-32" vertex="1" connectable="0">
                    <mxGeometry x="-0.0418" relative="1" as="geometry">
                        <mxPoint as="offset"/>
                    </mxGeometry>
                </mxCell>
                <mxCell id="a2Eg88y01cHOkWYuPuVT-33" style="edgeStyle=orthogonalEdgeStyle;rounded=0;orthogonalLoop=1;jettySize=auto;html=1;exitX=0.5;exitY=1;exitDx=0;exitDy=0;fontColor=#000000;" parent="1" source="a2Eg88y01cHOkWYuPuVT-34" target="a2Eg88y01cHOkWYuPuVT-36" edge="1">
                    <mxGeometry relative="1" as="geometry"/>
                </mxCell>
                <mxCell id="a2Eg88y01cHOkWYuPuVT-55" value="no" style="edgeLabel;html=1;align=center;verticalAlign=middle;resizable=0;points=[];fontColor=#000000;" parent="a2Eg88y01cHOkWYuPuVT-33" vertex="1" connectable="0">
                    <mxGeometry x="0.4949" y="1" relative="1" as="geometry">
                        <mxPoint as="offset"/>
                    </mxGeometry>
                </mxCell>
                <mxCell id="a2Eg88y01cHOkWYuPuVT-34" value="" style="rhombus;whiteSpace=wrap;html=1;fontColor=#000000;" parent="1" vertex="1">
                    <mxGeometry x="580" y="570" width="40" height="40" as="geometry"/>
                </mxCell>
                <mxCell id="a2Eg88y01cHOkWYuPuVT-35" style="edgeStyle=orthogonalEdgeStyle;rounded=0;orthogonalLoop=1;jettySize=auto;html=1;exitX=0.5;exitY=1;exitDx=0;exitDy=0;entryX=0.5;entryY=0;entryDx=0;entryDy=0;fontColor=#000000;" parent="1" source="a2Eg88y01cHOkWYuPuVT-36" target="a2Eg88y01cHOkWYuPuVT-9" edge="1">
                    <mxGeometry relative="1" as="geometry"/>
                </mxCell>
                <mxCell id="a2Eg88y01cHOkWYuPuVT-36" value="" style="rhombus;whiteSpace=wrap;html=1;fontColor=#000000;" parent="1" vertex="1">
                    <mxGeometry x="580" y="690" width="40" height="40" as="geometry"/>
                </mxCell>
                <mxCell id="a2Eg88y01cHOkWYuPuVT-37" style="edgeStyle=orthogonalEdgeStyle;rounded=1;orthogonalLoop=1;jettySize=auto;html=1;exitX=0;exitY=0.5;exitDx=0;exitDy=0;entryX=0.5;entryY=0;entryDx=0;entryDy=0;curved=0;fontColor=#000000;" parent="1" source="a2Eg88y01cHOkWYuPuVT-39" target="a2Eg88y01cHOkWYuPuVT-24" edge="1">
                    <mxGeometry relative="1" as="geometry"/>
                </mxCell>
                <mxCell id="a2Eg88y01cHOkWYuPuVT-47" value="yes" style="edgeLabel;html=1;align=center;verticalAlign=middle;resizable=0;points=[];fontColor=#000000;" parent="a2Eg88y01cHOkWYuPuVT-37" vertex="1" connectable="0">
                    <mxGeometry x="-0.2691" y="-3" relative="1" as="geometry">
                        <mxPoint x="-20" as="offset"/>
                    </mxGeometry>
                </mxCell>
                <mxCell id="a2Eg88y01cHOkWYuPuVT-38" style="edgeStyle=orthogonalEdgeStyle;rounded=0;orthogonalLoop=1;jettySize=auto;html=1;exitX=0.5;exitY=1;exitDx=0;exitDy=0;entryX=0.5;entryY=0;entryDx=0;entryDy=0;fontColor=#000000;" parent="1" source="a2Eg88y01cHOkWYuPuVT-39" target="a2Eg88y01cHOkWYuPuVT-41" edge="1">
                    <mxGeometry relative="1" as="geometry"/>
                </mxCell>
                <mxCell id="a2Eg88y01cHOkWYuPuVT-48" value="no" style="edgeLabel;html=1;align=center;verticalAlign=middle;resizable=0;points=[];fontColor=#000000;" parent="a2Eg88y01cHOkWYuPuVT-38" vertex="1" connectable="0">
                    <mxGeometry x="-0.3172" y="3" relative="1" as="geometry">
                        <mxPoint as="offset"/>
                    </mxGeometry>
                </mxCell>
                <mxCell id="a2Eg88y01cHOkWYuPuVT-39" value="messages &amp;gt; historyCount" style="rhombus;whiteSpace=wrap;html=1;fontColor=#000000;" parent="1" vertex="1">
                    <mxGeometry x="270" y="310" width="100" height="100" as="geometry"/>
                </mxCell>
                <mxCell id="a2Eg88y01cHOkWYuPuVT-40" style="edgeStyle=orthogonalEdgeStyle;rounded=0;orthogonalLoop=1;jettySize=auto;html=1;exitX=0.5;exitY=1;exitDx=0;exitDy=0;entryX=0.5;entryY=0;entryDx=0;entryDy=0;fontColor=#000000;" parent="1" source="a2Eg88y01cHOkWYuPuVT-41" target="a2Eg88y01cHOkWYuPuVT-43" edge="1">
                    <mxGeometry relative="1" as="geometry"/>
                </mxCell>
                <mxCell id="a2Eg88y01cHOkWYuPuVT-41" value="" style="rhombus;whiteSpace=wrap;html=1;fontColor=#000000;" parent="1" vertex="1">
                    <mxGeometry x="300" y="460" width="40" height="40" as="geometry"/>
                </mxCell>
                <mxCell id="a2Eg88y01cHOkWYuPuVT-42" style="edgeStyle=orthogonalEdgeStyle;rounded=1;orthogonalLoop=1;jettySize=auto;html=1;exitX=0.5;exitY=1;exitDx=0;exitDy=0;entryX=0.5;entryY=0;entryDx=0;entryDy=0;curved=0;fontColor=#000000;" parent="1" source="a2Eg88y01cHOkWYuPuVT-43" target="a2Eg88y01cHOkWYuPuVT-11" edge="1">
                    <mxGeometry relative="1" as="geometry">
                        <Array as="points">
                            <mxPoint x="320" y="810"/>
                            <mxPoint x="460" y="810"/>
                        </Array>
                    </mxGeometry>
                </mxCell>
                <mxCell id="a2Eg88y01cHOkWYuPuVT-43" value="History Generation" style="rounded=1;whiteSpace=wrap;html=1;fillColor=#f8cecc;strokeColor=#b85450;fontColor=#000000;" parent="1" vertex="1">
                    <mxGeometry x="260" y="580" width="120" height="40" as="geometry"/>
                </mxCell>
                <mxCell id="a2Eg88y01cHOkWYuPuVT-45" style="edgeStyle=orthogonalEdgeStyle;rounded=1;orthogonalLoop=1;jettySize=auto;html=1;exitX=0.5;exitY=1;exitDx=0;exitDy=0;entryX=0.5;entryY=0;entryDx=0;entryDy=0;curved=0;fontColor=#000000;" parent="1" source="a2Eg88y01cHOkWYuPuVT-44" target="a2Eg88y01cHOkWYuPuVT-14" edge="1">
                    <mxGeometry relative="1" as="geometry"/>
                </mxCell>
                <mxCell id="a2Eg88y01cHOkWYuPuVT-44" value="Mongo DB" style="rounded=1;whiteSpace=wrap;html=1;fillColor=#d5e8d4;strokeColor=#82b366;fontColor=#000000;" parent="1" vertex="1">
                    <mxGeometry x="660" y="200" width="120" height="40" as="geometry"/>
                </mxCell>
                <mxCell id="a2Eg88y01cHOkWYuPuVT-51" value="messages &amp;gt; 1" style="rhombus;whiteSpace=wrap;html=1;fontColor=#000000;" parent="1" vertex="1">
                    <mxGeometry x="550" y="540" width="100" height="100" as="geometry"/>
                </mxCell>
            </root>
        </mxGraphModel>
    </diagram>
</mxfile>